<svg xmlns="http://www.w3.org/2000/svg" xmlns:xlink="http://www.w3.org/1999/xlink" width="65" zoomAndPan="magnify" viewBox="0 0 48.75 32.249999" height="43" preserveAspectRatio="xMidYMid meet" version="1.0"><defs><clipPath id="f67ec95678"><path d="M 22 7 L 35 7 L 35 29.800781 L 22 29.800781 Z M 22 7 " clip-rule="nonzero"/></clipPath><clipPath id="93533ca394"><path d="M 22 2 L 38.800781 2 L 38.800781 23 L 22 23 Z M 22 2 " clip-rule="nonzero"/></clipPath><clipPath id="ec5b02622b"><path d="M 9.480469 9 L 22 9 L 22 23 L 9.480469 23 Z M 9.480469 9 " clip-rule="nonzero"/></clipPath></defs><g clip-path="url(#f67ec95678)"><path fill="#000000" d="M 22.726562 29.78125 C 22.464844 29.78125 22.253906 29.566406 22.253906 29.304688 C 22.253906 21.476562 22.765625 16.601562 33.257812 7.394531 C 33.453125 7.222656 33.753906 7.242188 33.925781 7.445312 C 34.09375 7.644531 34.070312 7.945312 33.875 8.121094 C 23.691406 17.050781 23.195312 21.757812 23.195312 29.304688 C 23.195312 29.566406 22.984375 29.78125 22.726562 29.78125 " fill-opacity="1" fill-rule="nonzero"/></g><g clip-path="url(#93533ca394)"><path fill="#000000" d="M 23.300781 22.507812 C 23.207031 22.507812 23.117188 22.480469 23.035156 22.425781 C 22.820312 22.273438 22.765625 21.976562 22.910156 21.757812 C 24.121094 19.972656 25.78125 19.566406 27.535156 19.132812 C 29.757812 18.585938 32.277344 17.96875 35.09375 14.625 C 36.851562 12.546875 37.078125 9.363281 37.277344 6.554688 C 37.359375 5.414062 37.433594 4.324219 37.605469 3.351562 C 36.886719 3.632812 35.941406 3.894531 34.84375 4.195312 C 31.152344 5.214844 26.101562 6.613281 24.085938 10.21875 C 23.097656 11.992188 22.949219 14.179688 23.652344 16.726562 C 23.722656 16.980469 23.574219 17.246094 23.324219 17.316406 C 23.078125 17.386719 22.8125 17.238281 22.742188 16.984375 C 21.972656 14.183594 22.148438 11.75 23.265625 9.746094 C 25.476562 5.792969 30.746094 4.335938 34.597656 3.273438 C 36.117188 2.851562 37.433594 2.488281 38.019531 2.09375 C 38.183594 1.980469 38.398438 1.984375 38.558594 2.101562 C 38.71875 2.222656 38.789062 2.429688 38.734375 2.621094 C 38.425781 3.722656 38.324219 5.132812 38.21875 6.621094 C 38.007812 9.578125 37.769531 12.929688 35.808594 15.25 C 32.792969 18.824219 30.003906 19.511719 27.757812 20.0625 C 26.046875 20.488281 24.691406 20.820312 23.6875 22.300781 C 23.597656 22.4375 23.449219 22.507812 23.300781 22.507812 " fill-opacity="1" fill-rule="nonzero"/></g><path fill="#000000" d="M 22.820312 25.980469 C 22.640625 25.980469 22.46875 25.875 22.390625 25.695312 C 21.917969 24.621094 21.246094 23.398438 20.445312 22.164062 C 18.539062 19.214844 16.132812 16.472656 14.453125 15.335938 C 14.234375 15.191406 14.175781 14.894531 14.320312 14.671875 C 14.464844 14.453125 14.757812 14.394531 14.972656 14.539062 C 16.777344 15.757812 19.234375 18.546875 21.234375 21.636719 C 22.0625 22.914062 22.761719 24.1875 23.25 25.304688 C 23.355469 25.546875 23.25 25.832031 23.011719 25.9375 C 22.949219 25.964844 22.882812 25.980469 22.820312 25.980469 " fill-opacity="1" fill-rule="nonzero"/><g clip-path="url(#ec5b02622b)"><path fill="#000000" d="M 20.839844 22.378906 C 20.582031 22.378906 20.367188 22.164062 20.367188 21.898438 C 20.363281 16.707031 20.234375 15.136719 17.308594 13.4375 C 15.609375 12.457031 14.828125 12.257812 13.835938 12.007812 C 13.097656 11.820312 12.210938 11.597656 10.78125 11.007812 C 10.949219 11.625 11.078125 12.296875 11.21875 13 C 11.9375 16.664062 12.753906 20.820312 18.511719 21.164062 C 18.769531 21.179688 18.96875 21.40625 18.953125 21.671875 C 18.9375 21.933594 18.710938 22.136719 18.457031 22.117188 C 11.972656 21.734375 11 16.792969 10.292969 13.1875 C 10.082031 12.105469 9.882812 11.085938 9.566406 10.339844 C 9.488281 10.160156 9.53125 9.949219 9.667969 9.8125 C 9.804688 9.671875 10.015625 9.632812 10.191406 9.714844 C 12.140625 10.59375 13.164062 10.851562 14.0625 11.078125 C 15.082031 11.335938 15.964844 11.558594 17.773438 12.609375 C 21.136719 14.554688 21.304688 16.515625 21.3125 21.898438 C 21.3125 22.164062 21.101562 22.378906 20.839844 22.378906 " fill-opacity="1" fill-rule="nonzero"/></g></svg>